<svg width="74" height="58" viewBox="0 0 74 58" fill="none" xmlns="http://www.w3.org/2000/svg">
<rect x="47.6685" y="0.369537" width="10.3466" height="42.8647" rx="5.17332" fill="#7879F1"/>
<rect x="10.7161" y="10.7162" width="10.3466" height="32.518" rx="5.17332" fill="#A5A6F6"/>
<rect x="24.019" y="18.1066" width="8.86855" height="25.1276" rx="4.43428" fill="#4F46E5"/>
<rect x="35.8437" y="12.9333" width="8.86855" height="30.3009" rx="4.43428" fill="#36309E"/>
<path d="M61.7103 45.8209V43.2342C61.7103 41.7117 63.4485 40.8426 64.6665 41.7561L72.7609 47.8269C73.7193 48.5457 73.7508 49.9723 72.8251 50.7327L64.7307 57.3817C63.525 58.3721 61.7103 57.5144 61.7103 55.954V53.9504H16.6285C7.44485 53.9504 -4.01432e-07 46.5055 0 37.3218L1.45371e-06 4.06475C1.45371e-06 1.81985 1.81985 -9.81276e-08 4.06475 0C6.30966 9.81278e-08 8.12951 1.81985 8.12951 4.06475L8.12951 37.3218C8.12951 42.0157 11.9347 45.8209 16.6285 45.8209L61.7103 45.8209Z" fill="url(#paint0_linear_403_1856)"/>
<defs>
<linearGradient id="paint0_linear_403_1856" x1="5.00305" y1="22.5137" x2="66.9158" y2="50.6559" gradientUnits="userSpaceOnUse">
<stop stop-color="#6861E8"/>
<stop offset="1" stop-color="#DFDEF9"/>
</linearGradient>
</defs>
</svg>
